<svg width="211" height="212" viewBox="0 0 211 212" fill="none" xmlns="http://www.w3.org/2000/svg">
<rect y="0.0012207" width="211" height="211" rx="105.5" fill="#B2FF97"/>
<path d="M60.159 32.7023C58.2289 33.4849 57.4741 36.1976 58.7326 38.043C59.3765 38.9935 59.6276 39.1059 63.263 40.252C65.78 41.0623 70.0856 43.2713 72.2113 44.8656C76.4059 48.025 80.6837 53.227 82.6693 57.645C83.7044 59.9941 85.1017 64.3288 85.3542 65.9772C85.5221 67.1802 85.4667 67.3189 83.8169 69.4724C82.0269 71.8216 79.7624 76.1548 78.812 79.0077C78.0572 81.3291 77.1899 85.747 76.9943 88.5429L76.8264 90.8643H133.309L133.142 88.5429C132.806 83.8739 131.296 78.1682 129.478 74.505C128.556 72.6596 125.983 68.7731 125.228 68.1015C124.473 67.4021 124.501 66.6751 125.341 63.5711C128.024 53.8139 133.952 46.403 142.537 42.0697C143.851 41.4273 145.808 40.6155 146.871 40.252C150.534 39.1059 150.758 38.9935 151.402 38.043C152.884 35.834 151.625 32.8425 149.108 32.5344C146.144 32.1431 136.888 36.5611 132.051 40.671C126.207 45.6204 121.844 52.0794 119.58 59.1269C119.076 60.6642 118.657 61.9505 118.629 61.9797C118.629 62.0074 117.483 61.476 116.112 60.8059C112.141 58.8203 109.876 58.3166 105.067 58.3458C100.258 58.3458 97.9365 58.8495 94.0223 60.8059C92.6528 61.4775 91.5052 62.0074 91.5052 61.9797C91.4775 61.952 91.0585 60.6657 90.5548 59.1269C88.5414 52.8912 85.1017 47.4104 80.2092 42.6843C75.7066 38.3496 70.198 35.0223 64.4105 33.1491C62.1169 32.3943 61.165 32.2818 60.159 32.7023Z" fill="black"/>
<path d="M41.7032 68.2139C39.9132 68.7731 38.2079 71.7091 38.6547 73.4991C39.5497 77.1345 47.0438 101.937 47.295 102.049C47.4629 102.105 52.1042 103.504 57.6128 105.126L67.5948 108.062L67.678 114.94L67.7335 121.819L57.4434 126.656C49.3068 130.487 47.1533 131.606 47.0409 132.08C46.9577 132.388 45.4743 141.252 43.7136 151.738C40.3614 171.899 40.3337 172.011 41.5075 173.605C42.9617 175.506 44.975 176.038 47.0161 175.06C49.2528 173.969 49.1696 174.305 52.329 155.458C53.9234 146.063 55.3206 138.26 55.4607 138.12C55.7688 137.841 68.938 131.689 69.2738 131.689C69.3862 131.689 69.6373 132.36 69.833 133.143C70.9791 138.148 73.664 144.943 76.292 149.586C88.6509 171.396 110.406 175.759 126.317 159.652C132.498 153.417 137.781 143.518 140.158 133.704C140.409 132.613 140.745 131.69 140.858 131.69C141.193 131.69 154.364 137.843 154.671 138.122C154.811 138.262 156.208 146.035 157.802 155.43C160.962 174.22 160.879 173.969 163.06 175.004C165.073 175.982 166.919 175.619 168.345 173.941C169.882 172.096 169.939 172.738 166.444 151.822C164.654 141.28 163.172 132.388 163.089 132.08C162.977 131.606 160.825 130.486 152.687 126.656L142.396 121.819L142.452 114.94L142.535 108.062L152.52 105.124C158.029 103.504 162.67 102.105 162.838 102.049C163.034 101.965 165.075 95.4225 167.424 87.5093C171.869 72.4099 171.869 72.2975 170.891 70.3966C170.388 69.4184 168.933 68.3278 167.787 68.0752C165.997 67.7117 163.929 68.8023 163.006 70.62C162.838 70.9558 161.188 76.3519 159.315 82.6153C157.469 88.9065 155.903 94.1085 155.82 94.1639C155.652 94.3318 141.671 98.414 141.28 98.414C141.084 98.414 140.861 97.9103 140.748 97.2956L140.58 96.1773H69.5541L69.3862 97.2956C69.2738 97.9103 69.0504 98.414 68.8548 98.414C68.4635 98.414 54.4825 94.3318 54.3146 94.1639C54.2314 94.1085 52.6371 88.7955 50.7347 82.3642C48.8338 75.9607 47.0161 70.3689 46.708 69.9761C45.5065 68.3263 43.5778 67.6547 41.7032 68.2139Z" fill="black"/>
</svg>
