<svg width="211" height="212" viewBox="0 0 211 212" fill="none" xmlns="http://www.w3.org/2000/svg">
<rect y="0.0012207" width="211" height="211" rx="105.5" fill="#6D6BB7"/>
<path d="M89.06 54.2699C91.23 53.8199 93.4 53.4999 95.54 53.2899C97.74 53.0799 99.92 52.9799 102.07 52.9999C103.28 53.0099 104.25 53.9999 104.24 55.2099C104.23 56.1399 103.64 56.9299 102.82 57.2399C93.67 60.8399 86.35 67.5499 81.86 75.8599C77.44 84.0299 75.76 93.7399 77.77 103.54L77.78 103.61C80.07 114.67 86.61 123.76 95.36 129.52C104.1 135.28 115.03 137.7 126.09 135.44L126.16 135.43C134.12 133.78 141.05 129.94 146.46 124.65C152.06 119.18 156.02 112.17 157.79 104.49C158.06 103.31 159.24 102.58 160.41 102.85C161.3 103.06 161.94 103.78 162.08 104.63C164.72 120.83 160.73 136.7 152.02 149.34C143.35 161.92 129.99 171.31 113.84 174.63C97.22 178.05 80.79 174.41 67.66 165.77C54.52 157.1 44.69 143.45 41.27 126.83C37.93 110.6 41.32 94.5499 49.53 81.5799C57.78 68.5699 70.88 58.6399 86.91 54.7499C87.22 54.6699 87.58 54.5899 87.97 54.4999H87.98L89.06 54.2699Z" fill="black"/>
</svg>
