<svg width="241" height="212" viewBox="0 0 241 212" fill="none" xmlns="http://www.w3.org/2000/svg">
<rect x="15" y="0.0012207" width="211" height="211" rx="105.5" fill="#2D2AC4"/>
<path d="M82.6922 188.858L82.5218 188.43L82.3946 184.497L82.2674 180.563L82.7963 175.795L83.9246 171.265L84.5663 169.477L85.2081 167.689L87.4894 163.398L88.6313 161.729L90.6575 158.994L93.6182 155.818L98.847 151.902L105.977 147.629L114.296 142.686L117.385 140.71L121.664 137.954L123.971 135.743L125.759 133.348L128.318 132.535L131.883 130.429L135.517 127.309L137.825 124.182L139.182 121.678L140.541 117.795L140.77 116.279L140.999 114.764L141.304 111.426L140.571 106.536L138.59 102.367L134.844 98.6033L134.569 98.8792L136.05 103.493L136.756 107.555L136.752 113.095L136.274 116.194L135.529 118.221L134.785 120.247L132.43 123.823L129.745 126.603L127.13 128.596L125.763 129.476L125.559 129.153L125.355 128.83L125.351 128.645L125.348 128.461L123.389 126.33L121.902 125.423L118.099 124.387L113.345 124.128L109.067 124.646L101.699 125.824L95.9952 127.029L90.5288 128.27L85.5376 129.43L80.0712 130.639L77.2191 131.085L76.6686 131.094L78.4075 134.493V138.604L78.2073 139.319L78.0071 140.035L76.6895 136.111L74.7746 133.567L70.017 131.058L67.2465 128.165L65.8623 131.149L65.7427 132.825L65.6231 134.502L64.8878 133.121L64.7903 130.975L64.6929 128.829L65.212 127.28L65.7312 125.73L67.5922 122.336L69.4752 120.247L69.5013 122.393L69.7879 123.465H70.1175L72.1488 120.388L74.8067 117.744H75.1649L75.4598 119.066L75.7548 120.388L76.1431 120.628L77.6772 118.816L80.4004 116.026L81.0071 116.229L81.7099 118.936L82.2103 118.93L84.5155 116.293L87.1286 114.357L87.329 114.56L87.5294 114.764L87.6031 115.956L87.6768 117.148L88.8651 117.074L94.3316 115.582L99.7981 115.302L103.838 115.842L105.087 116.119L105.806 112.208L105.159 109.107L103.991 107.107L101.785 105.067L98.6098 103.575L95.9954 103.566L93.8443 104.594L91.242 106.385L88.3626 109.28L86.639 111.418L86.328 111.106L86.1951 109.636L86.0622 108.166L84.7662 110.255L82.2778 112.499H81.6916L81.8774 111.366L82.0632 110.234L82.0774 109.936L82.0914 109.638L81.7349 109.652L80.9159 111.086L80.0968 112.521L77.8337 114.644H77.1003V111.812L76.625 111.517V112.077L74.4404 115.373L72.5845 116.323L72.5513 116.258L72.518 116.194L72.2542 113.967L71.9904 111.74L70.089 114.748L66.9933 117.982H66.4051V114.009L66.1275 113.73L63.4721 114.647L61.5328 115.794L60.9046 116.471L60.2764 117.148L58.8443 120.009L58.5657 118.817L58.3531 117.863L58.1405 116.909L57.3902 114.168L56.6399 111.426L54.705 105.705L52.4039 101.056H53.5944L55.1156 101.836L56.8995 103.44H57.3603L58.4169 100.936L60.2693 97.3736L61.7323 95.4532L63.9095 93.1584L66.5875 91.5187L68.1876 91.2082L66.4619 92.8308L65.2167 95.3181V97.9564H65.3497L68.9005 94.4686L73.1786 91.6029L77.4567 89.209L82.4479 86.8129L86.013 85.2919L88.6273 84.1985L90.833 83.3944L92.9793 81.9683L93.6107 81.138L94.2421 80.3076L95.4008 77.769L95.5553 75.585L95.7099 73.4009L94.6642 73.3727L93.6185 73.3445L92.1925 73.0339L95.9952 71.9038L100.036 70.2785L103.584 68.326L105.977 66.6519L107.166 65.7333L108.831 64.2224L112.217 61.5079L117.148 58.2263L123.327 54.8326L128.319 52.6253L129.269 52.1966L132.597 50.9519L137.112 49.6117L141.866 48.6344L145.193 48.3098L144.952 48.5713L140.915 50.2212L136.012 52.4636L131.408 54.8612L127.652 57.5119L120.594 64.1499V64.5378L127.368 61.7797L131.646 60.3325L136.4 58.9139L139.489 58.1313L144.243 57.169L150.66 56.2261L155.252 55.0725L159.454 53.5871L163.019 51.8727L167.687 48.8375L172.451 44.2006L175.066 40.7155L177.536 35.8527L178.019 34.4222L178.824 37.9375L178.819 39.7559L178.814 41.5742L178.36 43.6343L177.905 45.6944L176.26 48.9647L173.414 52.7791L169.185 56.832L168.248 57.5556L165.871 59.1661L162.01 61.213L158.265 62.6266L153.803 63.8774L150.422 64.3297L141.391 65.5763L137.101 66.952L136.631 67.308L136.162 67.6641L137.203 67.6793L147.332 66.4137L168.01 66.344L171.813 65.7324L175.853 64.7955L179.779 63.3954L181.59 62.4687L184.053 60.5161V61.2923L182.839 63.7167L181.233 65.8912L178.23 68.8143L175.643 70.5661L172.204 72.2255L168.723 73.423L163.019 74.5474L159.929 74.8537L147.095 75.279L145.431 75.7387L144.012 76.0607L144.818 76.5131L150.66 77.6688L154.7 78.1616L160.404 78.6852L164.71 79.5698L168.412 81.2618L171.734 83.4773L175.14 86.8975L177.678 90.5867L179.961 95.4528L180.465 97.0983L180.97 98.7438L180.902 98.8117L180.834 98.8796L177.992 96.2653L174.902 93.7301L171.812 91.5902L168.01 89.4438L164.207 87.9954L160.73 87.418L160.534 87.6143L164.417 90.4464L169.248 95.2144L171.632 98.3137L173.585 101.524L175.191 104.751L176.65 108.803L177.149 110.972L177.648 113.141L177.878 115.144L178.107 117.147L178.107 119.889L178.107 122.631L177.865 124.776L177.622 126.922L176.44 132.566L175.948 134.155L175.457 135.743L174.776 137.65L174.095 139.557L172.664 143.328L172.123 143.849L172.271 142.657L172.42 141.465L172.555 135.48L172.691 129.496L172.083 126.177L171.475 122.858L170.854 121.195L170.233 119.532L169.792 119.079L169.746 119.293L169.361 130.975L168.16 138.604L166.912 143.61L165.736 146.948L164.456 150.047L163.526 151.716L162.596 153.385L161.157 155.292L158.265 158.312L156.245 159.725V159.286L156.995 157.199L158.342 152.67L159.546 147.902L159.809 146.471L160.263 140.988L160.092 140.181L159.92 139.374L158.784 142.657L157.38 145.518L154.255 150.286L147.808 156.723L142.817 160.036L141.153 161.093L136.632 163.237L134.023 164.26L129.982 165.722L127.13 166.553L121.426 168.3L116.435 169.756L113.583 170.619L108.592 172.148L102.412 174.318L98.9312 175.914H98.7795L94.8065 178.154L90.7774 181.039L86.095 185.543L83.2167 189.145L82.8626 189.284L82.6921 188.857L82.6922 188.858ZM113.108 87.6142L114.297 87.2904L117.065 86.0478L116.764 85.5602H115.906L114.772 84.6778L111.773 83.3367L108.117 83.2953L106.454 84.2643L105.859 85.4121L105.265 86.5599L103.958 87.2442V87.6842L105.503 87.9375L106.929 88.1433L111.92 87.9379L113.108 87.6142Z" fill="black"/>
</svg>
