<svg width="211" height="211" viewBox="0 0 211 211" fill="none" xmlns="http://www.w3.org/2000/svg">
<rect width="211" height="211" rx="105.5" fill="#FFE663"/>
<path d="M152.535 87.7096H133.465C129.372 87.7096 117.791 89.708 113.872 87.2752C113.088 84.4948 115.614 79.4554 116.31 77.0226C118.313 69.9848 120.229 63.0339 122.231 55.9093L130.765 25.2384C131.897 21.2416 126.672 19.5039 124.496 22.5449L55.5299 116.99C53.9625 119.162 56.1394 122.203 58.5776 122.203H86.5296C88.4453 122.203 95.8469 120.987 97.066 122.812C98.198 124.289 96.0211 128.894 95.5857 130.545C90.361 148.617 85.3105 166.689 80.26 184.762C79.128 188.758 84.3526 190.496 86.5296 187.455L155.408 93.0097C157.063 90.7506 154.973 87.7096 152.535 87.7096Z" fill="black"/>
</svg>
