<svg width="211" height="212" viewBox="0 0 211 212" fill="none" xmlns="http://www.w3.org/2000/svg">
<rect y="0.0012207" width="211" height="211" rx="105.5" fill="#FEBEFF"/>
<path d="M100.579 54.9264C97.9509 75.2028 95.695 92.1114 95.5836 92.4814C95.3609 93.0741 92.3272 90.705 77.195 78.2364C56.3278 61.0691 55.1422 60.1064 55.9578 61.105C56.29 61.5128 63.69 70.5022 72.385 81.0472C85.52 97.0309 88.0722 100.325 87.5172 100.51C87.1095 100.657 70.2009 102.915 49.9245 105.543C29.6122 108.169 13 110.389 13 110.5C13 110.611 29.7614 112.831 50.2228 115.495C70.6841 118.123 87.5928 120.416 87.8155 120.528C88.0741 120.713 61.7305 153.273 56.1428 159.674C55.6991 160.156 55.55 160.452 55.7728 160.341C55.9955 160.229 64.985 152.867 75.7528 143.987C91.7364 130.812 95.3628 128.001 95.5836 128.519C95.695 128.889 97.9509 145.797 100.579 166.074C103.169 186.388 105.389 203 105.5 203C105.611 203 107.831 186.388 110.421 166.074C113.049 145.797 115.305 128.889 115.454 128.519C115.639 127.926 118.784 130.369 134.917 143.651C145.498 152.346 154.489 159.708 154.897 160.042C155.858 160.856 154.971 159.71 137.766 138.805C125.297 123.673 122.928 120.639 123.521 120.416C123.891 120.305 140.799 118.049 161.076 115.421C181.388 112.831 198 110.611 198 110.5C198 110.389 181.388 108.169 161.074 105.543C140.797 102.915 123.889 100.657 123.519 100.548C122.999 100.363 126.071 96.44 138.985 80.7528C147.865 69.985 155.227 60.9955 155.339 60.7728C155.45 60.55 155.154 60.6991 154.672 61.1428C148.235 66.7664 115.711 93.11 115.526 92.8155C115.414 92.5928 113.159 75.6841 110.493 55.2228C107.867 34.7614 105.611 18 105.5 18C105.389 18 103.169 34.6122 100.579 54.9264Z" fill="black"/>
</svg>
