<svg width="211" height="211" viewBox="0 0 211 211" fill="none" xmlns="http://www.w3.org/2000/svg">
<rect width="211" height="211" rx="105.5" fill="#FF6363"/>
<g clip-path="url(#clip0_145_2)">
<path d="M98.8391 50.6503C94.8969 51.5608 91.4758 52.3916 91.2492 52.494C90.1844 52.9948 89.3348 54.2468 88.0094 57.2059C86.9785 59.5391 86.6613 60.1651 86.1289 60.9504C84.8601 62.8055 83.6027 63.4201 81.2465 63.3177C80.023 63.2608 79.9664 63.2494 76.2168 61.895C75.7637 61.7357 75.0613 61.5877 74.5742 61.5536C73.7473 61.4967 73.5887 61.5422 68.0039 63.1583C64.8547 64.0802 62.1359 64.8883 61.9434 64.9566C60.4027 65.5484 59.3152 67.2101 57.6953 71.4781C56.3133 75.1315 55.5656 76.5314 54.4781 77.5443C53.8437 78.1248 53.2207 78.4321 52.1672 78.6483C51.125 78.876 50.1621 78.8646 48.2023 78.58C46.1633 78.2955 44.634 78.3183 43.875 78.6597C43.4105 78.876 35.1297 84.2707 34.2574 84.9308C33.3398 85.6365 33.068 87.2071 33.068 91.8507C33.0566 95.8796 33.2605 98.5201 33.8156 101.752C33.9969 102.845 34.3141 103.858 35.3449 106.76C36.0586 108.763 37.1234 111.734 37.7012 113.361C38.9133 116.753 44.7699 133.165 45.8687 136.238C46.2766 137.365 47.6359 141.177 48.8934 144.717L51.193 151.147L51.6348 151.375C51.9973 151.546 52.3824 151.603 53.5039 151.637C58.6809 151.796 69.5332 148.689 70.0996 146.879C70.1336 146.754 69.4086 143.829 68.457 140.255C65.0586 127.577 63.5633 121.977 62.9629 119.735C60.8785 111.984 58.4996 103.084 58.4656 102.902C58.4316 102.708 58.6355 102.629 60.2441 102.253C61.241 102.014 62.1359 101.821 62.2379 101.821C62.3625 101.809 62.4871 102.048 62.657 102.686C62.7816 103.175 64.7867 110.562 67.0977 119.109C69.4086 127.656 72.3199 138.412 73.566 143.01C76.6586 154.437 76.5227 153.947 76.7719 154.175C77.157 154.55 78.1086 154.653 80.4082 154.585C87.6469 154.38 100.074 150.988 100.686 149.053C100.72 148.939 99.4734 143.067 97.9101 135.999C92.9598 113.635 89.0742 95.9593 89.1082 95.9252C89.2101 95.8341 92.9937 95.026 93.0504 95.083C93.0957 95.1171 93.2883 95.8455 93.4695 96.6877C93.6621 97.5299 94.8402 102.629 96.0976 108.012C98.873 119.963 100.096 125.232 100.969 128.954C101.331 130.513 102.204 134.257 102.895 137.262C103.597 140.267 104.48 144.08 104.866 145.73C105.647 149.121 105.625 149.053 106.735 149.269C108.695 149.634 114.053 149.099 119.717 147.961C129.085 146.071 135.746 143.647 135.746 142.122C135.746 141.963 133.356 129.796 130.422 115.08C127.499 100.353 125.098 88.2314 125.098 88.129C125.098 88.0038 125.358 87.89 126.095 87.7192C127.952 87.2867 128.949 87.0933 129.006 87.1388C129.051 87.1957 130.671 94.5253 138.068 128.043C139.677 135.339 140.685 139.721 140.798 139.834C141.523 140.631 145.273 140.722 149.906 140.039C157.621 138.912 164.701 136.556 165.596 134.815C165.732 134.542 165.698 134.189 165.199 131.389C164.893 129.671 164.112 125.198 163.443 121.442C162.786 117.686 161.687 111.461 161.008 107.614C160.328 103.767 159.614 99.7152 159.422 98.6225C159.229 97.5299 158.516 93.4782 157.836 89.6313C156.409 81.5164 156.261 80.6856 154.834 72.5593C154.245 69.2132 153.656 66.1402 153.52 65.7305C152.512 62.5551 149.091 56.284 146.462 52.8127C145.534 51.5835 144.401 50.4682 143.789 50.1723L143.279 49.9219L141.523 50.195C140.561 50.343 137.275 50.8551 134.217 51.3332C131.17 51.7998 128.428 52.2664 128.134 52.3689C127.352 52.6192 126.457 53.2566 124.928 54.6224C123.296 56.0905 122.277 56.7507 120.94 57.2059C120.102 57.5018 119.807 57.5474 119.082 57.5132C117.485 57.4449 116.114 56.5344 112.512 53.1086C109.261 50.0129 107.981 49.1366 106.655 49.0455C106.134 49.0114 104.605 49.33 98.8391 50.6503Z" fill="black"/>
<path d="M162.594 90.4052C162.594 90.519 162.718 91.3043 162.877 92.1465C163.024 92.9888 163.557 95.9707 164.055 98.7932C164.554 101.604 165.222 105.372 165.539 107.159C165.856 108.945 166.513 112.678 167.012 115.467C167.51 118.255 168.416 123.411 169.051 126.939C169.674 130.467 170.218 133.62 170.252 133.95C170.297 134.292 170.263 134.918 170.195 135.339C169.685 138.286 166.706 140.585 161.2 142.259C160.226 142.554 153.701 144.205 138.805 147.904C120.578 152.433 121.586 152.172 121.291 152.536C119.411 154.892 118.108 160.355 118.652 163.598C118.822 164.566 119.241 165.476 119.671 165.784L120 166.023L124.452 165.602C126.887 165.374 130.479 165.044 132.404 164.862C137.989 164.338 160.509 162.301 165.879 161.834C167.963 161.664 170.07 160.548 172.234 158.522C173.945 156.906 175.134 155.188 175.678 153.549L175.972 152.661L176.414 141.086C176.663 134.724 177.116 122.865 177.434 114.738C177.751 106.612 177.989 99.9427 177.977 99.9314C177.955 99.9086 174.76 97.8941 170.875 95.4357C166.989 92.9774 163.534 90.7922 163.205 90.5873C162.673 90.2459 162.594 90.2231 162.594 90.4052Z" fill="black"/>
</g>
<defs>
<clipPath id="clip0_145_2">
<rect width="145" height="117" fill="white" transform="translate(33 49)"/>
</clipPath>
</defs>
</svg>
