<svg width="211" height="211" viewBox="0 0 211 211" fill="none" xmlns="http://www.w3.org/2000/svg">
<rect width="211" height="211" rx="105.5" fill="#FF8863"/>
<g clip-path="url(#clip0_136_9)">
<path d="M84.8191 182.795C86.3429 183.605 87.9503 181.851 87.0174 180.399C81.9535 172.518 77.1583 159.256 84.7982 142.176C97.5387 113.694 105.291 98.9423 105.291 98.9423C105.291 98.9423 109.415 116.157 120.593 131.464C131.351 146.196 137.24 164.723 127.746 180.158C126.856 181.606 128.427 183.316 129.94 182.541C141.691 176.53 154.871 164.472 156.358 140.478C156.907 133.146 156.084 122.881 151.973 109.927C146.686 93.5101 140.186 85.8495 136.426 82.5597C135.301 81.5755 133.551 82.4478 133.644 83.9395C134.739 101.654 128.075 106.149 124.282 96.0183C122.767 91.972 121.884 84.9734 121.884 76.4505C121.884 62.2613 117.767 47.6549 108.691 35.7856C106.331 32.699 103.569 29.8148 100.401 27.3552C99.2539 26.4646 97.5912 27.3598 97.6962 28.8082C98.3931 38.4272 97.7618 65.9946 73.5764 98.929C51.6474 129.479 60.1448 152.942 63.16 159.297C68.9249 171.47 76.9661 178.62 84.8191 182.795Z" fill="black"/>
</g>
<defs>
<clipPath id="clip0_136_9">
<rect width="156" height="156" fill="white" transform="translate(30 27)"/>
</clipPath>
</defs>
</svg>
