<svg width="211" height="211" viewBox="0 0 211 211" fill="none" xmlns="http://www.w3.org/2000/svg">
<rect width="211" height="211" rx="105.5" fill="#63B4FF"/>
<g clip-path="url(#clip0_140_11)">
<path fill-rule="evenodd" clip-rule="evenodd" d="M59.35 167.46C51.34 157.74 47.43 148.17 47.04 138.75C46.22 119.01 57.92 104.28 75.3 93.67C93.58 82.51 112.38 79.74 130.66 71.42C139.79 67.27 150.68 60.47 168.8 46C174.72 61.69 155.88 86.9 125.28 100.23C134.76 100.6 144.97 97.69 156.13 90.49C155.37 110.43 139.67 122.7 104.83 127.44C112.16 129.89 120.92 130.02 132.1 126.86C121.33 162.81 76.9 137.06 59.35 167.46Z" fill="black"/>
</g>
<defs>
<clipPath id="clip0_140_11">
<rect width="122.88" height="121.46" fill="white" transform="translate(47 46)"/>
</clipPath>
</defs>
</svg>
