<svg width="211" height="211" viewBox="0 0 211 211" fill="none" xmlns="http://www.w3.org/2000/svg">
<rect width="211" height="211" rx="105.5" fill="#79FF63"/>
<path d="M51.4271 38C59.6658 43.5932 92.6667 72.5007 92.6667 176H117.333C117.333 76.8206 60.3302 42.7436 51.4271 38ZM159.151 60.3342C155.469 61.3576 129.269 69.4943 115.984 103.368C116.879 106.163 117.694 109.069 118.49 112.084C119.988 117.744 121.258 123.792 122.344 130.242C130.2 78.2001 153.458 63.2505 159.151 60.3342ZM31 83.0316C31 83.0316 61.8333 107.999 61.8333 176H86.5C86.5 116.797 31 83.0316 31 83.0316ZM179 83.0316C179 83.0316 123.5 116.797 123.5 176H148.167C148.167 107.999 179 83.0316 179 83.0316Z" fill="black"/>
</svg>
