<svg width="211" height="211" viewBox="0 0 211 211" fill="none" xmlns="http://www.w3.org/2000/svg">
<rect width="211" height="211" rx="105.5" fill="#C26E4A"/>
<path d="M179.775 155.671C179.908 155.354 179.983 155.009 179.998 154.657C180.012 154.306 179.965 153.954 179.859 153.624C179.753 153.294 179.59 152.994 179.381 152.74C179.173 152.486 178.922 152.286 178.644 152.15C177.318 151.451 175.966 150.772 174.587 150.111L174.566 150.056L149.738 98.5931C149.522 98.2082 149.228 97.8922 148.882 97.6734C148.536 97.4547 148.149 97.3402 147.756 97.3402C147.363 97.3402 146.976 97.4547 146.63 97.6734C146.284 97.8922 145.99 98.2082 145.774 98.5931L140.679 109.165L108.394 42.2533C108.179 41.8683 107.886 41.5522 107.54 41.3334C107.195 41.1146 106.808 41 106.416 41C106.023 41 105.636 41.1146 105.291 41.3334C104.945 41.5522 104.652 41.8683 104.437 42.2533L83.6147 85.4179L77.5549 72.8542C77.3389 72.4707 77.0451 72.156 76.6998 71.9382C76.3544 71.7205 75.9684 71.6065 75.5762 71.6065C75.184 71.6065 74.7979 71.7205 74.4525 71.9382C74.1072 72.156 73.8134 72.4707 73.5975 72.8542L36.5872 149.577C34.7997 150.401 33.0374 151.247 31.3381 152.15C30.789 152.441 30.3608 152.974 30.1474 153.635C29.9341 154.295 29.9529 155.027 30.1999 155.671C30.722 157.012 31.9542 156.996 33.2126 156.996H176.766C176.766 156.996 179.056 157.145 179.772 155.671" fill="black"/>
</svg>
