<svg width="211" height="212" viewBox="0 0 211 212" fill="none" xmlns="http://www.w3.org/2000/svg">
<rect y="0.0012207" width="211" height="211" rx="105.5" fill="#97DAFF"/>
<path d="M92.3218 37.9957C90.4286 40.7405 88.8797 43.0373 88.8797 43.1062C88.8797 43.1752 91.1056 44.6681 93.8133 46.4252L98.7469 49.6064L98.8043 53.1321C98.8387 55.073 98.8502 56.6578 98.8272 56.6578C98.8158 56.6578 96.544 55.3945 93.8018 53.8327C91.0482 52.2823 88.7535 51.0305 88.7076 51.0534C88.5011 51.1223 82.1447 61.5157 82.2595 61.5846C82.3283 61.6191 84.7263 63.0431 87.5947 64.7543L92.8036 67.8551L92.7463 70.3242C92.7233 71.6794 92.666 73.3561 92.6201 74.0452L92.5512 75.3084L90.5434 76.3765C89.4419 76.9737 87.9848 77.7431 87.3193 78.0991L86.1146 78.7423L82.7872 76.9852C80.963 76.0205 79.4485 75.2051 79.4255 75.1936C79.4026 75.1706 79.5517 72.2766 79.7468 68.7623C79.9418 65.2366 80.0795 62.3426 80.0565 62.3196C80.0107 62.2622 79.4485 62.2048 72.0251 61.3664C69.1911 61.0448 66.862 60.7922 66.8505 60.8152C66.839 60.8381 66.7702 63.9159 66.7014 67.6713C66.6325 71.4152 66.5522 74.5045 66.5293 74.539C66.4948 74.5734 60.999 71.6794 60.1729 71.1855C60.15 71.1741 60.0123 68.1766 59.8402 64.5131C59.6796 60.8611 59.5304 57.8062 59.5189 57.7488C59.496 57.6684 58.1306 57.7029 55.4802 57.8292C53.2773 57.9326 50.5007 58.0704 49.319 58.1278C48.1372 58.1852 47.1505 58.2541 47.1275 58.2771C47.1046 58.3001 47.1619 59.1499 47.2423 60.1605C47.8848 67.545 48.1028 70.1749 48.1716 71.0707L48.2405 72.1043L46.4735 72.9197C40.8515 75.5152 36.8931 77.3756 36.8013 77.456C36.7554 77.502 37.9143 80.0974 39.3829 83.2327L42.0562 88.9174L44.7296 87.5508C46.1982 86.7928 48.6076 85.5525 50.0762 84.806L52.7381 83.4394L55.6982 85.1391C57.3275 86.0693 58.6584 86.8847 58.6469 86.9306C58.6355 86.988 56.4326 88.3432 53.7363 89.9395C50.9941 91.5703 48.8485 92.9025 48.8715 92.9829C48.9633 93.3159 54.5853 103.732 54.6771 103.744C54.723 103.744 57.1783 102.4 60.1041 100.746C63.0413 99.1041 65.5081 97.7834 65.577 97.8178C65.6458 97.8523 67.0685 98.7136 68.7436 99.7472L71.7841 101.619L71.7497 104.95C71.7268 106.787 71.6923 108.429 71.6579 108.625C71.6006 108.935 71.2678 109.176 68.3421 111.002L65.0836 113.035L59.7255 109.532C56.7882 107.602 54.3329 106.041 54.287 106.064C54.1608 106.11 46.3358 116.721 46.3817 116.767C46.4047 116.79 49.078 118.386 52.325 120.339L58.2109 123.864L57.8897 124.071C57.7061 124.186 56.3063 125.059 54.7689 126L51.9923 127.712L46.0146 124.622C42.7332 122.911 40.0025 121.567 39.9451 121.613C39.8992 121.671 38.7633 123.841 37.4324 126.448L35 131.168L35.0344 132.053L35.0688 132.937L40.9433 135.693C46.5309 138.323 46.8292 138.472 46.8177 138.76C46.8177 138.92 46.5768 141.78 46.2785 145.11L45.7392 151.163L46.0261 151.22C46.5768 151.324 58.188 152.242 58.2454 152.185C58.3027 152.127 58.4175 150.232 58.6355 145.662C58.7043 144.364 58.7846 142.63 58.8305 141.803L58.8994 140.287L61.8825 138.541C63.5232 137.588 64.8885 136.819 64.9115 136.842C64.9344 136.865 64.9918 139.472 65.0262 142.641L65.1065 148.384L66.5522 148.452C69.5927 148.602 77.3488 148.797 77.4291 148.728C77.4635 148.682 77.5324 145.903 77.5783 142.561C77.6242 139.173 77.7045 136.417 77.7618 136.359C77.8192 136.313 79.2763 135.487 80.9859 134.533L84.1182 132.799L86.6079 134.315C87.9848 135.142 89.396 136.015 89.7517 136.256L90.3942 136.692L90.463 138.162C90.5089 138.966 90.5778 140.7 90.6122 141.998L90.6925 144.364L84.9672 147.258C81.8235 148.854 79.2305 150.175 79.219 150.187C79.1846 150.21 84.4509 162.337 84.5198 162.406C84.5427 162.429 87.2619 160.947 90.5663 159.11L96.567 155.768L96.6358 156.825C96.6817 157.41 96.7391 159.052 96.785 160.477L96.8538 163.061L91.1859 166.678C87.239 169.193 85.5179 170.342 85.5638 170.456C85.5868 170.548 86.9751 172.73 88.6273 175.303L91.6333 179.989L92.5168 180H93.3888L97.3931 177.209C99.5845 175.682 101.879 174.074 102.487 173.649L103.589 172.891L108.66 176.44C111.678 178.553 113.835 180 113.984 180C114.179 179.989 114.948 178.966 117.678 175.004C119.571 172.271 121.12 169.974 121.12 169.894C121.12 169.825 118.906 168.332 116.187 166.575L111.253 163.394L111.219 159.868L111.196 156.331L111.678 156.618C113.72 157.789 121.201 161.97 121.281 161.97C121.373 161.97 127.878 151.519 127.809 151.473C127.798 151.45 125.526 150.106 122.784 148.475C120.042 146.845 117.667 145.421 117.506 145.317L117.219 145.11L117.3 143.181C117.334 142.113 117.403 140.436 117.449 139.46L117.529 137.68L120.661 135.946L123.794 134.212L127.087 135.957C128.899 136.922 130.425 137.76 130.494 137.829C130.563 137.898 130.483 140.08 130.253 144.284C130.058 147.786 129.921 150.657 129.955 150.692C130.012 150.749 143.104 152.242 143.149 152.185C143.161 152.162 143.23 149.084 143.299 145.329C143.367 141.585 143.448 138.495 143.471 138.472C143.528 138.415 149.494 141.596 149.712 141.803C149.816 141.895 149.942 143.79 150.16 148.59C150.32 152.254 150.493 155.286 150.538 155.32C150.607 155.377 161.209 154.895 162.345 154.78L162.941 154.723L162.884 154.298C162.815 153.804 161.943 143.48 161.84 141.929L161.771 140.896L167.427 138.266C170.548 136.819 173.141 135.601 173.187 135.555C173.245 135.498 172.086 132.903 170.606 129.779L167.932 124.083L165.523 125.323C164.203 126.012 161.794 127.241 160.188 128.068L157.262 129.561L154.313 127.872C152.684 126.942 151.33 126.15 151.296 126.115C151.261 126.081 153.476 124.714 156.218 123.095L161.22 120.132L160.497 118.8C160.107 118.053 158.811 115.607 157.606 113.356C156.413 111.105 155.38 109.256 155.323 109.256C155.277 109.256 152.833 110.6 149.896 112.242C146.936 113.907 144.515 115.205 144.435 115.159C143.654 114.723 138.514 111.473 138.376 111.335C138.216 111.174 138.204 110.772 138.273 107.625C138.308 105.685 138.365 104.077 138.399 104.054C138.422 104.031 139.902 103.101 141.681 101.998L144.916 99.9769L150.263 103.468C153.212 105.397 155.667 106.959 155.724 106.936C155.839 106.89 163.676 96.2789 163.618 96.233C163.595 96.21 160.922 94.6137 157.675 92.6613C153.625 90.2381 151.835 89.1012 151.938 89.0323C152.03 88.9863 153.43 88.125 155.059 87.1144L158.019 85.2884L163.985 88.3891C167.336 90.1233 169.998 91.444 170.055 91.3866C170.112 91.3291 171.237 89.1586 172.579 86.5516L175 81.8316L174.966 80.9473L174.931 80.063L169.057 77.3067C163.469 74.6768 163.171 74.5275 163.182 74.2404C163.182 74.0796 163.423 71.22 163.722 67.8895L164.272 61.8258L163.917 61.7684C163.194 61.6535 151.812 60.7577 151.755 60.8152C151.697 60.8726 151.583 62.7905 151.365 67.3383C151.296 68.636 151.215 70.3702 151.169 71.2085L151.101 72.713L148.118 74.4586C146.477 75.4233 145.123 76.1812 145.089 76.1583C145.066 76.1353 145.008 73.5284 144.974 70.3587L144.893 64.6165L143.276 64.5476C139.558 64.3753 132.64 64.203 132.571 64.2834C132.536 64.3179 132.468 67.0971 132.422 70.4391C132.376 73.781 132.33 76.5487 132.296 76.5717C132.181 76.6751 125.538 79.8562 125.434 79.8562C125.274 79.8562 124.195 79.1902 121.683 77.5364L119.606 76.1812L119.537 74.7112C119.491 73.9073 119.422 72.2191 119.388 70.9444L119.307 68.636L125.033 65.7305C128.177 64.1456 130.77 62.8249 130.781 62.8134C130.804 62.7905 129.691 60.2065 128.314 57.0483C126.937 53.9016 125.744 51.1453 125.664 50.9386C125.572 50.7319 125.446 50.5826 125.377 50.6055C125.308 50.64 122.589 52.133 119.342 53.9475L113.433 57.232L113.364 56.1755C113.318 55.5898 113.261 53.9475 113.215 52.5234L113.146 49.9395L118.826 46.3219C122.853 43.7494 124.482 42.6584 124.436 42.532C124.402 42.4516 123.025 40.2696 121.373 37.6856L118.367 33.0115L117.483 33H116.611L112.607 35.7907C110.416 37.3181 108.121 38.9259 107.513 39.3509L106.411 40.1088L101.34 36.5602C98.288 34.4126 96.1769 33 96.0162 33C95.8097 33.0115 95.0869 33.9991 92.3218 37.9957Z" fill="black"/>
</svg>
