<svg width="211" height="211" viewBox="0 0 211 211" fill="none" xmlns="http://www.w3.org/2000/svg">
<rect width="211" height="211" rx="105.5" fill="#9563FF"/>
<path d="M98.9003 34.1878C82.1703 35.974 70.3938 44.1463 66.1619 56.9168C63.4566 65.0891 63.6084 73.9827 66.7334 92.6443C67.2672 95.7608 67.5709 98.7259 67.4566 99.2193C67.3423 99.6752 66.3138 101.082 65.1693 102.336C62.5015 105.224 62.3104 106.061 63.6443 108.683C64.255 109.862 64.8264 111.799 64.9782 113.281C65.2835 115.486 65.4729 115.979 66.5783 116.967C67.264 117.614 69.5513 118.868 71.6477 119.779C78.3172 122.668 79.4992 123.277 80.8331 124.607C82.4331 126.242 83.1205 127.838 83.4633 130.726C83.8062 133.387 84.3025 134.033 86.856 134.983C90.7075 136.393 94.061 136.735 104.998 136.735C115.937 136.735 119.291 136.393 123.139 134.986C125.692 134.035 126.187 133.39 126.492 130.653C126.987 126.397 128.932 123.888 133.199 122.025C140.669 118.832 142.308 117.996 143.413 116.969C144.519 115.981 144.71 115.487 145.013 113.092C145.242 111.343 145.738 109.709 146.385 108.531C147.719 106.136 147.49 105.224 144.822 102.336C143.68 101.082 142.649 99.6377 142.498 99.1053C142.383 98.6119 142.726 95.6078 143.26 92.5303C144.594 84.8905 145.776 74.4386 145.776 69.9528C145.776 62.6174 144.213 56.1939 141.126 50.8727C139.258 47.6422 133.962 42.2836 130.835 40.4583C125.576 37.3792 118.83 35.1745 112.047 34.3392C108.811 33.9599 101.873 33.8833 98.9003 34.1878ZM87.2773 80.2923C91.3181 80.8996 93.3377 81.6991 95.4717 83.5993C98.0252 85.8805 98.7876 88.3115 98.2162 92.3024C97.5305 97.1677 95.168 100.931 91.7377 102.565C89.9091 103.44 82.1344 104.01 78.9327 103.477C75.0077 102.868 73.7881 101.273 73.7881 96.8257C73.7506 88.7674 77.4094 81.3555 81.829 80.3672C83.9989 79.8738 84.1899 79.8738 87.2773 80.2923ZM129.733 80.9761C133.621 82.9903 136.708 91.2001 136.137 98.042C135.756 103.021 133.203 104.199 124.055 103.554C117.766 103.098 115.137 101.577 113.118 97.1302C110.412 91.2391 111.327 85.4995 115.48 82.6875C119.291 80.1018 126.38 79.2665 129.733 80.9761ZM106.829 99.5629C109.687 103.249 113.536 111.117 113.307 112.903C113.193 113.929 113.155 113.929 110.22 113.892C107.78 113.854 107.018 113.664 106.104 113.017L104.998 112.18L103.893 113.017C102.979 113.664 102.216 113.854 99.777 113.892C96.9182 113.929 96.8039 113.892 96.6896 113.017C96.4986 111.763 97.4896 109.292 99.9288 104.77C102.368 100.286 104.007 98.156 104.998 98.156C105.38 98.156 106.18 98.8024 106.829 99.5629Z" fill="black"/>
<path d="M43.2588 74.3621C40.7428 74.8946 39.8677 75.3879 37.8465 77.1741C33.8073 80.8231 33.0072 87.0936 36.0179 91.8074L37.0857 93.4796L35.2179 93.7076C28.0145 94.582 23.3647 101.727 25.5378 108.606C26.4521 111.457 29.159 114.46 31.9019 115.676C37.3518 118.032 43.9445 115.753 46.7282 110.506C47.796 108.492 47.2621 108.416 54.1601 111.685C57.019 113.016 59.419 114.118 59.4957 114.118C60.0296 114.118 59.4957 111.876 58.619 110.392C57.7814 108.948 57.5512 108.15 57.5512 106.325C57.5888 103.664 58.2369 102.22 60.6386 99.6736C62.2386 97.9639 62.3153 97.7734 62.0868 96.2526C61.8206 94.6943 61.7815 94.6569 58.5798 93.1735C56.1406 92.0337 55.4549 91.5778 55.7602 91.2359C55.9512 90.9705 56.4459 89.7542 56.7887 88.4988C59.1512 80.3297 51.6817 72.501 43.2588 74.3621Z" fill="black"/>
<path d="M162.204 74.2481C158.393 75.0085 155.268 77.4412 153.667 81.0136C152.561 83.4837 152.561 87.8165 153.704 90.0977L154.504 91.7699L151.34 93.2142C148.215 94.6585 148.178 94.696 147.91 96.2542C147.681 97.775 147.758 97.9639 149.358 99.6752C151.76 102.222 152.406 103.666 152.445 106.327C152.445 108.15 152.217 108.95 151.378 110.394C150.501 111.876 149.967 114.12 150.501 114.12C150.576 114.12 152.978 113.017 155.836 111.687C162.734 108.419 162.201 108.494 163.268 110.508C166.813 117.197 175.922 118.641 181.332 113.434C182.132 112.674 183.277 111.154 183.809 110.127C185.182 107.58 185.257 103.057 184 100.397C182.366 96.8257 178.744 94.2026 174.78 93.7092L172.875 93.4813L173.827 92.0744C175.961 88.8814 176.38 85.1185 175.086 81.5835C173.6 77.6691 170.398 75.0085 166.206 74.2481C164.948 74.0202 163.918 73.8297 163.918 73.8688C163.881 73.9062 163.118 74.0593 162.204 74.2481Z" fill="black"/>
<path d="M62.1227 134.683L47.6409 141.448L46.8784 139.853C45.9641 137.913 43.791 135.709 41.6571 134.569C39.2947 133.315 33.8824 133.315 31.5574 134.569C29.0415 135.899 27.3647 137.572 26.2219 139.89C25.3076 141.714 25.1541 142.513 25.1541 145.097C25.1541 147.644 25.3451 148.442 26.1827 150.077C28.088 153.688 32.0897 156.31 35.7109 156.31C37.0824 156.31 37.5787 156.766 36.7787 157.261C36.5501 157.412 35.902 158.4 35.3681 159.465C33.9575 162.088 33.8824 166.573 35.1395 169.271C37.502 174.44 43.5233 177.139 49.0499 175.543C51.8695 174.745 54.9944 171.931 56.2532 169.157C57.4353 166.459 57.4728 162.543 56.3283 160.073L55.5283 158.286L73.4028 150C83.2348 145.439 91.0863 141.6 90.8202 141.486C90.554 141.334 89.2953 140.993 88.0756 140.726C85.0274 140.079 82.8919 139.13 81.2152 137.686C79.3474 136.051 78.6617 134.646 78.3188 131.68C77.749 127.12 78.7025 126.929 62.1227 134.683Z" fill="black"/>
<path d="M132.63 128.564C132.287 128.943 131.867 130.35 131.676 131.68C131.333 134.646 130.648 136.051 128.78 137.686C127.103 139.13 124.969 140.081 121.919 140.726C120.7 140.991 119.443 141.333 119.175 141.486C118.909 141.6 126.759 145.439 136.592 150L154.467 158.286L153.667 160.073C151.838 164.026 152.981 169.613 156.258 172.767C158.62 175.046 160.717 175.883 164.261 175.883C167.882 175.883 170.054 175.046 172.341 172.767C174.78 170.334 175.695 168.054 175.695 164.48C175.695 161.934 175.504 161.136 174.627 159.464C174.093 158.399 173.445 157.41 173.216 157.259C172.416 156.766 172.911 156.308 174.284 156.308C178.362 156.308 182.707 153.115 184.269 148.896C186.328 143.384 183.927 137.456 178.439 134.567C176.114 133.314 170.702 133.314 168.339 134.567C166.206 135.707 164.032 137.912 163.081 139.889L162.356 141.484L147.797 134.683C133.926 128.22 133.201 127.918 132.63 128.564Z" fill="black"/>
</svg>
