<svg width="370" height="372" viewBox="0 0 370 372" fill="none" xmlns="http://www.w3.org/2000/svg">
<path fill-rule="evenodd" clip-rule="evenodd" d="M184.944 162.556C178.766 162.557 172.842 165.012 168.474 169.38C164.107 173.749 161.653 179.673 161.653 185.85C161.653 188.909 162.255 191.939 163.426 194.765C164.597 197.592 166.313 200.16 168.476 202.323C170.639 204.486 173.207 206.202 176.033 207.373C178.86 208.543 181.889 209.146 184.948 209.146C191.126 209.146 197.052 206.691 201.42 202.322C205.789 197.954 208.243 192.028 208.243 185.85C208.242 179.672 205.788 173.747 201.42 169.379C197.051 165.01 191.126 162.556 184.948 162.556C184.947 162.556 184.945 162.556 184.944 162.556ZM0.102142 201.381C3.99572 247.726 25.1568 290.918 59.3923 322.398C93.6278 353.878 138.44 371.349 184.948 371.349C231.457 371.348 276.268 353.877 310.504 322.397C344.739 290.918 365.9 247.726 369.793 201.381H227.957C224.763 210.226 218.92 217.871 211.223 223.275C203.527 228.679 194.351 231.578 184.947 231.578C175.543 231.578 166.368 228.678 158.672 223.275C150.975 217.871 145.132 210.226 141.938 201.381H0.102142Z" fill="#F2F2F2"/>
<path fill-rule="evenodd" clip-rule="evenodd" d="M184.948 0.353027C138.44 0.353055 93.6278 17.824 59.3923 49.3039C25.1568 80.7838 3.99572 123.976 0.102142 170.321H141.938C145.118 161.514 150.925 153.896 158.574 148.496C166.222 143.095 175.345 140.173 184.708 140.124C184.787 140.124 184.867 140.124 184.947 140.124C194.351 140.124 203.527 143.023 211.223 148.427C218.92 153.831 224.763 161.476 227.957 170.321H369.794C365.901 123.976 344.74 80.7838 310.504 49.3039C276.269 17.824 231.457 0.353053 184.948 0.353027Z" fill="#FF0000"/>
<path fill-rule="evenodd" clip-rule="evenodd" d="M184.708 140.124C165.529 140.225 148.452 152.282 141.938 170.321H0.102142V201.381H141.938C148.482 219.502 165.681 231.578 184.947 231.578C204.214 231.578 221.414 219.502 227.957 201.381H369.793L369.794 170.321H227.957C221.414 152.2 204.214 140.124 184.947 140.124C184.867 140.124 184.787 140.124 184.708 140.124ZM184.944 162.556H184.948C197.813 162.556 208.242 172.985 208.243 185.85C208.243 198.716 197.814 209.145 184.948 209.146C172.083 209.146 161.653 198.716 161.653 185.85C161.653 172.987 172.08 162.558 184.944 162.556Z" fill="black"/>
</svg>
