<svg width="211" height="211" viewBox="0 0 211 211" fill="none" xmlns="http://www.w3.org/2000/svg">
<rect width="211" height="211" rx="105.5" fill="#B163FF"/>
<path d="M126.625 107.5C126.625 119.147 117.147 128.625 105.5 128.625C93.8531 128.625 84.375 119.147 84.375 107.5C84.375 95.853 93.8531 86.375 105.5 86.375C117.147 86.375 126.625 95.853 126.625 107.5ZM190 104.338C190 104.338 160.059 163.833 105.606 163.833C55.0465 163.833 21 104.338 21 104.338C21 104.338 52.3073 51.1666 105.606 51.1666C159.784 51.1666 190 104.338 190 104.338ZM140.708 107.5C140.708 88.0861 124.914 72.2916 105.5 72.2916C86.0861 72.2916 70.2917 88.0861 70.2917 107.5C70.2917 126.914 86.0861 142.708 105.5 142.708C124.914 142.708 140.708 126.914 140.708 107.5Z" fill="black"/>
</svg>
