<svg width="211" height="211" viewBox="0 0 211 211" fill="none" xmlns="http://www.w3.org/2000/svg">
<rect width="211" height="211" rx="105.5" fill="#694F40"/>
<path d="M128.779 39.1666C124.638 39.1666 104.307 49.4531 97.3021 49.4531C95.5707 49.4531 76.6354 48.0838 74.8776 48.6302C68.9526 50.4669 52.0993 69.8713 49.3672 75.375C47.3329 79.4764 51.9199 98.3903 49.9844 102.531C48.095 106.573 44.4445 109.343 42.9896 113.846C41.0212 119.929 46.2747 137.018 43.8125 145.734C41.3569 154.438 47.2556 159.844 56.1563 161.575C59.0332 162.128 72.6393 169.599 79.8151 169.599C90.4933 169.599 100.584 161.896 110.88 159.724C113.862 159.099 148.805 155.201 151.82 149.849C155.132 143.97 162.63 143.386 164.987 136.888C166.699 132.148 166.595 127.071 166.016 121.87C165.436 116.643 163.927 114.189 161.695 109.732C159.115 104.616 162.015 103.673 164.576 99.651C166.169 97.1493 162.23 85.9264 161.078 84.2213C160.222 82.9573 162.637 74.5438 162.518 71.8776C162.281 66.8545 158.916 65.1214 154.906 63.4427C149.646 61.2307 148.227 59.1322 148.734 53.7734C149.807 42.325 128.779 39.1666 128.779 39.1666ZM125.693 53.5677C125.693 53.5677 131.916 55.3501 133.305 55.8307C134.371 59.3989 134.783 63.7044 134.539 66.5286C134.315 69.0961 137.605 77.4339 137.625 80.1067C137.665 86.4201 131.769 91.5058 133.922 97.7994C135.818 103.389 136.768 107.857 130.013 110.76C127.577 111.807 119.149 115.862 115.818 116.521C110.729 117.521 105.897 119.852 105.943 125.573C105.969 128.674 100.785 137.222 98.125 137.505C96.0842 137.729 89.2836 135.596 87.4271 136.682C81.2453 140.303 70.8749 149.752 63.3568 145.117C60.9341 143.629 59.5763 141.689 58.2135 139.562C58.7468 136.165 55.7761 117.515 56.362 115.698C56.6516 114.816 57.6309 113.53 58.625 112.2C59.8034 110.614 61.176 108.69 62.3281 106.234C65.047 100.415 62.1767 80.5511 62.3281 79.6953C62.5256 79.4385 76.3835 62.4519 77.9635 62.2083C79.0169 62.0437 95.439 63.0312 97.3021 63.0312C105.834 63.0312 124.613 54.0022 125.693 53.5677ZM113.555 71.8776C110.222 71.9601 105.572 76.2588 104.091 77.2265C101.991 78.6024 98.2435 79.032 96.4792 80.7239C94.2672 86.0893 97.73 90.2237 98.125 93.0677C98.6846 97.0111 95.3057 104.684 102.034 105C105.358 105.151 107.18 102.031 109.234 100.062C111.242 98.1335 120.563 94.9028 120.549 92.8619C122.202 89.7085 120.238 83.2157 118.698 81.9583C115.426 79.2855 119.155 73.9332 114.995 72.0833C114.589 71.9031 114.031 71.8658 113.555 71.8776ZM77.1406 105C74.6126 105 73.8769 110.013 73.2318 111.172C72.5471 112.403 66 115.652 68.7057 118.99C73.5313 124.928 80.8981 128.71 81.8724 124.339C82.8796 119.809 89.886 116.733 87.8385 113.435C84.876 108.662 81.7424 105 77.1406 105Z" fill="black"/>
</svg>
