<svg width="211" height="212" viewBox="0 0 211 212" fill="none" xmlns="http://www.w3.org/2000/svg">
<rect y="0.0012207" width="211" height="211" rx="105.5" fill="#717171"/>
<path d="M146.061 47.7977C144.792 45.5969 142.027 44 139.487 44H71.5129C68.9734 44 66.2083 45.5969 64.9391 47.7977L30.9523 106.702C29.6826 108.903 29.6826 112.096 30.9523 114.297L64.9391 173.202C66.2083 175.403 68.9734 177 71.5129 177H139.487C142.027 177 144.792 175.403 146.061 173.202L180.048 114.297C181.317 112.096 181.317 108.903 180.048 106.702L146.061 47.7977ZM105.5 142.854C87.6706 142.854 73.1655 128.34 73.1655 110.499C73.1655 92.6596 87.6706 78.1455 105.5 78.1455C123.329 78.1455 137.834 92.6596 137.834 110.499C137.834 128.34 123.329 142.854 105.5 142.854Z" fill="black"/>
</svg>
